<svg xmlns="http://www.w3.org/2000/svg" viewBox="0 0 32 32">
  <rect width="32" height="32" rx="8" fill="#6e56cf"/>
  <path d="M16 4C9.37 4 4 9.48 4 16.19c0 5.39 3.44 9.96 8.21 11.57.6.11.82-.26.82-.59 0-.29-.01-1.05-.02-2.07-3.34.74-4.05-1.63-4.05-1.63-.55-1.41-1.34-1.78-1.34-1.78-1.09-.76.08-.74.08-.74 1.2.09 1.84 1.25 1.84 1.25 1.07 1.86 2.81 1.33 3.49 1.02.11-.79.42-1.33.76-1.63-2.66-.31-5.46-1.35-5.46-6.02 0-1.33.47-2.42 1.23-3.27-.12-.31-.53-1.55.12-3.23 0 0 1.01-.33 3.3 1.25a11.3 11.3 0 013-.41c1.02.01 2.05.14 3 .41 2.29-1.58 3.3-1.25 3.3-1.25.65 1.68.24 2.92.12 3.23.77.85 1.23 1.94 1.23 3.27 0 4.68-2.81 5.71-5.48 6.01.43.38.82 1.12.82 2.26 0 1.63-.01 2.95-.01 3.34 0 .33.21.71.83.59C24.57 26.14 28 21.57 28 16.19 28 9.48 22.63 4 16 4z" fill="white"/>
</svg>