<svg width="24" height="24" viewBox="0 0 24 24" fill="none" xmlns="http://www.w3.org/2000/svg">
  <path d="M12 24C18.6274 24 24 18.6274 24 12C24 5.37258 18.6274 0 12 0C5.37258 0 0 5.37258 0 12C0 18.6274 5.37258 24 12 24Z" fill="#229ED9"/>
  <path fill-rule="evenodd" clip-rule="evenodd" d="M5.42411 11.5317C8.7501 10.083 10.9678 9.1245 12.0772 8.65621C15.2452 7.3193 15.9038 7.08643 16.3331 7.07886C16.4276 7.07719 16.6389 7.10061 16.7761 7.21191C16.892 7.30591 16.9238 7.43235 16.939 7.52155C16.9542 7.61074 16.973 7.81395 16.9581 7.97018C16.7876 9.76182 16.0494 14.1118 15.6726 16.126C15.5132 16.9785 15.1994 17.2644 14.8953 17.2923C14.2345 17.3529 13.7323 16.8559 13.0917 16.4358C12.09 15.7785 11.5242 15.3703 10.5528 14.73C9.43005 13.9898 10.1557 13.5835 10.7972 12.9174C10.9651 12.7431 13.8856 10.0827 13.9421 9.84139C13.9492 9.81121 13.9558 9.69894 13.8893 9.63973C13.8228 9.58052 13.7243 9.6008 13.6536 9.61685C13.5534 9.63958 11.9545 10.6961 8.85761 12.7872C8.40375 13.0991 7.99245 13.2512 7.62369 13.2432C7.2173 13.2344 6.43532 13.0141 5.85406 12.8252C5.1411 12.5936 4.5756 12.4712 4.62479 12.078C4.65041 11.8732 4.9323 11.6611 5.42411 11.5317Z" fill="white"/>
</svg>
